<svg width="315" height="315" viewBox="0 0 315 315" fill="none" xmlns="http://www.w3.org/2000/svg">
<rect width="315" height="315" rx="44.1177" fill="#2EA6FF"/>
<path d="M247.674 64.1789H183.381V231H144.579V64.1789H80.2863V29.9084H247.674V64.1789Z" fill="#393E46"/>
<path d="M250.212 234.169C250.212 245.498 247.285 255.034 241.432 262.775C235.578 270.328 227.648 276.087 217.641 280.052C207.822 284.017 197.06 286 185.353 286H88.2057V84.9084H195.832C205.273 84.9084 213.392 87.4574 220.19 92.5555C227.176 97.4648 232.463 103.885 236.051 111.815C239.827 119.557 241.715 127.676 241.715 136.173C241.715 145.802 239.26 154.96 234.351 163.646C229.442 172.331 222.267 178.751 212.826 182.905C224.344 186.304 233.407 192.44 240.016 201.315C246.813 210.189 250.212 221.141 250.212 234.169ZM210.843 226.805C210.843 221.707 209.805 217.176 207.728 213.21C205.651 209.056 202.818 205.847 199.231 203.581C195.832 201.126 191.867 199.899 187.335 199.899H127.291V252.862H185.353C190.073 252.862 194.322 251.729 198.098 249.464C202.063 247.009 205.179 243.799 207.445 239.834C209.71 235.869 210.843 231.526 210.843 226.805ZM127.291 118.329V169.027H179.405C183.748 169.027 187.713 167.988 191.301 165.911C194.888 163.834 197.72 160.908 199.797 157.131C202.063 153.355 203.196 148.823 203.196 143.536C203.196 138.438 202.158 134.001 200.081 130.225C198.192 126.448 195.549 123.522 192.15 121.445C188.94 119.368 185.258 118.329 181.104 118.329H127.291Z" fill="white"/>
<rect x="145" y="84" width="38" height="39" fill="#393E46"/>
</svg>
